<?xml version="1.0" encoding="UTF-8" standalone="no"?>
<svg
   xmlns:dc="http://purl.org/dc/elements/1.1/"
   xmlns:cc="http://creativecommons.org/ns#"
   xmlns:rdf="http://www.w3.org/1999/02/22-rdf-syntax-ns#"
   xmlns:svg="http://www.w3.org/2000/svg"
   xmlns="http://www.w3.org/2000/svg"
   xmlns:sodipodi="http://sodipodi.sourceforge.net/DTD/sodipodi-0.dtd"
   xmlns:inkscape="http://www.inkscape.org/namespaces/inkscape"
   version="1.1"
   id="svg10"
   width="319.01599"
   height="432.004"
   viewBox="0 0 319.01599 432.004"
   sodipodi:docname="devcorvus-logo.svg"
   inkscape:version="1.0.2 (e86c870879, 2021-01-15)">
  <metadata
     id="metadata16">
    <rdf:RDF>
      <cc:Work
         rdf:about="">
        <dc:format>image/svg+xml</dc:format>
        <dc:type
           rdf:resource="http://purl.org/dc/dcmitype/StillImage" />
        <dc:title></dc:title>
      </cc:Work>
    </rdf:RDF>
  </metadata>
  <defs
     id="defs14" />
  <sodipodi:namedview
     pagecolor="#ffffff"
     bordercolor="#666666"
     borderopacity="1"
     objecttolerance="10"
     gridtolerance="10"
     guidetolerance="10"
     inkscape:pageopacity="0"
     inkscape:pageshadow="2"
     inkscape:window-width="1024"
     inkscape:window-height="705"
     id="namedview12"
     showgrid="false"
     inkscape:showpageshadow="false"
     showborder="false"
     inkscape:zoom="0.49615877"
     inkscape:cx="-75.059214"
     inkscape:cy="227.64969"
     inkscape:window-x="-8"
     inkscape:window-y="-8"
     inkscape:window-maximized="1"
     inkscape:current-layer="g18" />
  <g
     inkscape:groupmode="layer"
     inkscape:label="Image"
     id="g18">
    <path
       style="fill:#ffffff;stroke-width:0.320049"
       d="m 300.65396,431.79149 c -13.97426,-2.58973 -18.05841,-20.20128 -6.62993,-28.58918 1.6348,-1.19984 2.03402,-1.6577 1.94111,-2.22618 -0.0643,-0.39363 -2.20655,-14.39568 -4.76047,-31.11568 -5.8582,-38.3527 -6.21513,-40.59763 -6.48987,-40.81542 -0.12423,-0.0985 -0.94612,-0.35527 -1.82641,-0.57056 -4.20745,-1.02909 -8.36532,-4.21604 -10.26898,-7.87104 -0.8234,-1.58087 -1.02968,-1.77485 -1.73476,-1.63127 -0.44013,0.0896 -3.10497,0.44333 -5.92187,0.78602 -2.81686,0.34269 -8.50664,1.06941 -12.64393,1.61491 -19.05336,2.51232 -41.62143,5.45898 -47.85496,6.24835 -3.68242,0.46631 -41.86226,5.43914 -56.49768,7.35866 -4.66546,0.6119 -11.86771,1.55152 -16.00502,2.088 -4.13728,0.53651 -11.2675,1.46637 -15.84494,2.0664 -4.57743,0.6 -11.77968,1.53981 -16.005,2.08848 -4.225328,0.54867 -10.851399,1.41267 -14.72461,1.92003 -3.873209,0.50736 -11.579621,1.51133 -17.125353,2.23101 -5.545734,0.71968 -12.747985,1.65632 -16.005004,2.08144 -3.257018,0.42512 -8.802752,1.14589 -12.323853,1.60173 -9.109378,1.1792 -8.375659,0.97875 -8.609302,2.35206 -2.2388,13.15898 -20.218311,17.16733 -28.2702383,6.30256 -6.9445713,-9.37056 -1.3646567,-23.46582 9.9157503,-25.04787 1.359895,-0.19072 1.243068,0.0891 1.972216,-4.72349 0.561626,-3.70694 1.814858,-11.83139 3.850194,-24.96 1.223053,-7.88909 6.506865,-42.20529 8.499376,-55.2 0.337337,-2.2 2.568955,-16.672 4.959152,-32.16 2.390197,-15.488 4.622135,-29.96 4.959861,-32.16 0.337713,-2.2 1.629939,-10.624 2.871588,-18.72 2.249123,-14.66503 3.138029,-20.40663 5.276239,-34.08 0.619244,-3.96 1.410181,-9.072 1.75761,-11.36 1.143477,-7.53027 5.128143,-33.480075 6.092963,-39.680006 0.520394,-3.343998 1.596921,-10.255997 2.392288,-15.359999 5.621197,-36.072193 5.334127,-33.472881 3.778383,-34.210916 -5.892802,-2.795511 -9.769144,-9.980282 -8.777536,-16.269085 2.940261,-18.6471617 28.960224,-18.2542777 31.518774,0.47591 l 0.338216,2.475911 4.025141,1.25367 c 2.213832,0.689517 5.465586,1.693639 7.226139,2.231376 3.101097,0.947194 17.983856,5.507043 24.167556,7.40457 1.67253,0.513229 7.07422,2.169149 12.00376,3.679824 4.92954,1.510672 10.5473,3.23616 12.4839,3.834413 1.93661,0.598252 7.3383,2.254857 12.00375,3.681347 4.66547,1.426486 10.28323,3.150825 12.48392,3.831865 2.20069,0.681037 6.45001,1.983325 9.44295,2.893972 2.99294,0.910642 8.39462,2.567104 12.00375,3.681025 29.20779,9.014677 25.83716,8.22675 27.22904,6.36513 3.12826,-4.184012 9.36564,-6.747202 14.464,-5.943801 14.40773,2.27037 18.86865,20.0615 7.181,28.639559 -1.9845,1.45654 -2.05732,1.558242 -1.82295,2.546178 0.13424,0.565981 0.75963,3.189051 1.38969,5.829052 0.63009,2.64 2.15347,9.048002 3.38528,14.240005 1.23181,5.192 3.31732,13.976 4.63448,19.52 1.31712,5.544 4.42618,18.648 6.90897,29.12 2.48279,10.472 5.22193,21.992 6.08699,25.6 0.86507,3.608 2.731,11.456 4.14652,17.44 1.41551,5.984 3.51651,14.84 4.66891,19.68 1.15236,4.84 3.59732,15.136 5.43325,22.88 1.8359,7.744 4.27986,18.04 5.43099,22.88 1.15116,4.84 3.70287,15.59901 5.67046,23.9089 l 3.57744,15.10889 1.46379,0.19651 c 15.37841,2.06474 19.60274,22.08868 6.24928,29.62256 -1.52097,0.85812 -1.7021,1.06868 -1.57128,1.82653 0.0813,0.47114 0.43,2.72861 0.77484,5.01661 0.34484,2.288 1.06342,6.968 1.59686,10.4 1.42101,9.14256 8.28318,54.10467 8.3993,55.03357 0.10379,0.83021 0.2708,0.91049 3.30022,1.58665 11.94246,2.66554 16.23154,17.84285 7.50712,26.56455 -3.55241,3.55126 -9.09676,5.36846 -13.74907,4.50627 z M 42.973379,340.74938 c 6.073899,-0.78778 15.004693,-1.94794 19.846205,-2.57818 4.841516,-0.63021 10.387248,-1.34653 12.323853,-1.59174 1.936606,-0.24525 13.460211,-1.74599 25.608013,-3.33501 12.1478,-1.58902 24.31958,-3.17834 27.04846,-3.53181 2.72885,-0.35347 8.27458,-1.07725 12.32385,-1.60841 4.04927,-0.53117 11.25152,-1.47021 16.00501,-2.08679 15.02606,-1.94905 29.94222,-3.89117 45.45422,-5.91821 15.09683,-1.9728 27.35216,-3.56761 32.01,-4.16556 2.64083,-0.33898 11.98691,-1.55616 20.76912,-2.7048 8.78215,-1.14861 16.0736,-2.08842 16.20317,-2.08842 0.12958,0 0.31319,-0.468 0.40807,-1.04 0.5813,-3.50579 3.13829,-7.55923 6.11381,-9.6919 2.02003,-1.44781 2.03175,-1.49837 1.17295,-5.06436 -0.70931,-2.94531 -8.91018,-37.47216 -12.01947,-50.60374 -1.12518,-4.752 -3.12369,-13.176 -4.44114,-18.72 -1.31746,-5.544 -4.42675,-18.648 -6.90955,-29.12 -2.48279,-10.472 -5.22195,-21.992 -6.08699,-25.6 -0.86507,-3.608 -2.74847,-11.528 -4.18534,-17.6 -1.4369,-6.072 -3.45148,-14.568 -4.47691,-18.88 -4.84078,-20.35648 -9.75013,-41.062526 -11.07717,-46.720003 -1.66138,-7.083033 -1.48347,-6.727783 -3.53383,-7.05589 -7.07218,-1.131733 -12.1595,-6.48803 -13.33411,-14.039144 l -0.36941,-2.375018 -3.84122,-1.196499 c -2.11264,-0.658071 -11.69164,-3.598582 -21.28664,-6.534462 -9.59502,-2.935879 -22.34298,-6.843849 -28.32885,-8.68438 -5.98589,-1.84053 -12.25185,-3.76308 -13.92437,-4.27233 -1.67252,-0.509251 -7.07421,-2.16563 -12.00377,-3.680843 -4.92952,-1.51521 -10.33121,-3.173674 -12.00373,-3.685472 -5.80482,-1.776298 -20.98304,-6.429328 -24.007516,-7.359735 -1.672522,-0.514512 -6.065898,-1.864166 -9.763052,-2.999235 l -6.722104,-2.063757 -0.786304,1.013383 c -2.203621,2.839981 -4.833771,4.683753 -8.164662,5.723555 -1.2389,0.386746 -2.292987,0.725616 -2.342445,0.75305 -0.08363,0.04638 -0.463305,2.432457 -2.94973,18.536777 -0.516301,3.343998 -1.589297,10.255996 -2.384437,15.359999 -1.424134,9.141539 -7.288937,47.247474 -8.520332,55.360004 -0.347299,2.288 -1.129826,7.328 -1.738944,11.2 -0.880425,5.59658 -4.529626,29.27454 -8.334696,54.08 -0.242986,1.584 -2.397852,15.552 -4.788597,31.04 -4.718445,30.56754 -4.673021,30.27246 -7.512499,48.8 -1.955111,12.75706 -3.340925,21.72016 -5.937166,38.4 -4.933513,31.69587 -4.643742,29.1895 -3.437975,29.73693 2.413825,1.0959 5.499339,4.24416 7.174353,7.32025 0.365804,0.67178 0.716204,0.93472 1.120348,0.84074 0.323443,-0.0752 5.557628,-0.78125 11.631527,-1.56899 z M 153.2888,264.89169 c -0.16087,-0.41911 1.93703,-24.77754 3.94038,-45.75124 0.33624,-3.52 0.70235,-7.552 0.81359,-8.96 0.11122,-1.408 0.47427,-5.44 0.80676,-8.96 0.33246,-3.52 0.83649,-9.064 1.12005,-12.32 0.28355,-3.256 0.72556,-8.152 0.98223,-10.88 0.25668,-2.728 0.60891,-6.58 0.78275,-8.56 0.17383,-1.98 0.46477,-5.292 0.64654,-7.36 0.18176,-2.068 0.46772,-5.128 0.63547,-6.8 0.16775,-1.672 0.45729,-4.84 0.64341,-7.04 0.18613,-2.2 0.54012,-6.232 0.78665,-8.96 0.2465,-2.728 0.95778,-10.72 1.58057,-17.76 1.34554,-15.21028 1.39514,-15.6152 1.88863,-15.4264 0.20721,0.0793 1.80102,0.55521 3.5418,1.05764 l 3.16509,0.91353 -0.22548,4.32761 c -0.12402,2.38019 -0.27334,4.75962 -0.33182,5.28762 -0.0585,0.528 -0.19672,2.544 -0.30718,4.48 -0.19563,3.42805 -0.30135,5.0105 -1.29359,19.36 -0.26165,3.784 -0.55507,8.176 -0.65204,9.76 -0.0969,1.584 -0.6808,10.44 -1.29741,19.68 -1.98324,29.71945 -3.22417,48.5505 -3.65866,55.52 -0.17555,2.816 -0.38866,5.84 -0.4736,6.72 -0.0849,0.88 -0.23025,2.896 -0.323,4.48 -0.54916,9.37905 -1.78834,26.82032 -1.93822,27.28 -0.21214,0.65069 -10.58168,0.56573 -10.83292,-0.0888 z m 42.24007,-35.27124 c -0.10369,-0.66 -0.69099,-5.088 -1.30512,-9.84 -0.61414,-4.752 -1.18599,-9.03309 -1.27077,-9.51354 -0.20767,-1.17675 2.70183,-3.78583 14.37025,-12.88646 0.67698,-0.528 1.39091,-1.10926 1.58649,-1.29168 0.19563,-0.18243 1.43599,-1.18271 2.75642,-2.22285 1.32041,-1.04015 2.47277,-1.97433 2.5608,-2.07598 0.088,-0.10163 1.16836,-0.96991 2.40075,-1.92949 1.23239,-0.95958 2.31272,-1.8226 2.40075,-1.91782 0.088,-0.0952 1.74455,-1.44713 3.68115,-3.00424 4.31744,-3.47142 4.20685,-2.87937 1.05341,-5.63862 -3.99446,-3.49515 -4.41072,-3.85508 -6.65849,-5.75733 -1.14253,-0.96691 -2.14934,-1.83243 -2.23737,-1.92339 -0.088,-0.091 -2.17668,-1.89824 -4.64145,-4.01618 -2.46479,-2.11794 -8.5716,-7.37242 -13.57071,-11.67661 -4.99913,-4.3042 -9.70715,-8.32981 -10.46228,-8.94581 -0.75512,-0.616 -1.51723,-1.48 -1.69358,-1.92 -0.37879,-0.9451 -2.05771,-13.51659 -1.90622,-14.27338 0.0723,-0.3611 3.04981,2.06253 9.72569,7.91647 5.29183,4.6403 10.20346,8.94091 10.91472,9.55691 1.4277,1.23646 3.8619,3.36099 8.43283,7.36 1.10643,0.968 2.2588,1.976 2.5608,2.24 0.30199,0.264 1.46166,1.272 2.57701,2.24 12.482,10.83296 17.60456,15.47508 17.74927,16.0846 1.9062,8.02693 3.36113,14.49081 3.36113,14.93271 0,0.30866 -1.98062,2.4187 -4.40138,4.68897 -2.42076,2.27026 -5.47323,5.13709 -6.78331,6.37073 -3.16491,2.98033 -3.10786,2.9269 -8.03209,7.52299 -2.35708,2.2 -5.59197,5.25166 -7.18866,6.78147 -1.59669,1.5298 -3.20235,3.0418 -3.56814,3.36 -0.36578,0.31819 -2.5221,2.32505 -4.79182,4.45968 -8.07236,7.5919 -7.34295,7.08277 -7.62008,5.31885 z m -53.52231,-3.20546 c -1.3235,-1.15966 -3.85481,-3.30693 -5.23536,-4.44111 -0.61151,-0.50239 -1.34588,-1.12943 -1.63192,-1.39343 -0.28604,-0.264 -1.22615,-1.07318 -2.08914,-1.79817 -0.86299,-0.725 -2.22602,-1.877 -3.02894,-2.56 -0.80295,-0.68301 -2.23454,-1.88983 -3.18134,-2.68183 -0.94682,-0.792 -2.82226,-2.376 -4.1676,-3.52 -1.34535,-1.144 -3.21475,-2.728 -4.15421,-3.52 -0.93946,-0.792 -2.88276,-2.448 -4.31842,-3.68 -1.43567,-1.232 -4.24155,-3.608 -6.23529,-5.28 -3.80982,-3.19499 -4.93357,-4.14768 -7.36054,-6.24 -0.816598,-0.704 -2.26106,-1.928 -3.209924,-2.72 -0.948857,-0.792 -2.382137,-1.99882 -3.185066,-2.68183 -0.802921,-0.683 -2.165947,-1.835 -3.028939,-2.56 -0.862988,-0.72499 -1.804734,-1.53417 -2.092754,-1.79817 -0.288028,-0.264 -1.814638,-1.5597 -3.392479,-2.87934 -1.577835,-1.31964 -2.940819,-2.47193 -3.028849,-2.56066 -0.08803,-0.0887 -1.456453,-1.2374 -3.040949,-2.5526 -1.584497,-1.3152 -3.190987,-2.6829 -3.569996,-3.03934 -0.37901,-0.35643 -1.835864,-1.58406 -3.237474,-2.72806 -3.62118,-2.95564 -3.440234,-1.76371 -1.95193,-12.85789 1.478984,-11.02471 1.190494,-10.32108 4.758149,-11.60553 1.320413,-0.47538 2.904906,-1.06063 3.521101,-1.30054 1.85365,-0.72171 15.108342,-5.65637 16.485154,-6.13735 0.70422,-0.24601 1.734313,-0.65686 2.289086,-0.91299 0.554761,-0.25614 1.128161,-0.4657 1.274208,-0.4657 0.239933,0 2.820832,-0.9515 4.439212,-1.63662 0.66263,-0.2805 4.87178,-1.84659 11.5236,-4.28754 2.11266,-0.77526 5.20963,-1.9278 6.88216,-2.56122 1.67252,-0.63341 3.97724,-1.4948 5.1216,-1.9142 1.14436,-0.4194 4.24132,-1.57594 6.88215,-2.57008 2.6408,-0.99415 5.18102,-1.88059 5.64486,-1.96985 l 0.84337,-0.1623 0.23688,7.89498 c 0.13359,4.45126 0.11479,7.99616 -0.0431,8.12695 -0.15401,0.12759 -1.14429,0.57132 -2.20062,0.98608 -1.05633,0.41475 -2.49678,1.01036 -3.201,1.32358 -0.70422,0.31321 -2.21669,0.94764 -3.36107,1.40983 -1.14434,0.46219 -2.51277,1.03289 -3.04093,1.26823 -1.22268,0.5448 -5.99046,2.53098 -10.72335,4.46718 -2.02464,0.82827 -3.96925,1.63286 -4.32136,1.78799 -1.46316,0.64462 -4.06841,1.73227 -14.564555,6.08053 -6.073899,2.51624 -11.082855,4.60421 -11.13101,4.63992 -0.340516,0.25253 0.877214,1.42661 4.808952,4.63654 2.479125,2.024 4.741624,3.896 5.027762,4.16 0.286151,0.264 1.234586,1.05112 2.107641,1.74915 0.87309,0.69803 1.65943,1.34843 1.74746,1.44534 0.088,0.0969 1.29567,1.10979 2.68362,2.25085 1.38796,1.14106 3.12525,2.57866 3.86062,3.19466 0.73536,0.616 2.11182,1.768 3.05876,2.56 0.94695,0.792 2.3215,1.944 3.05454,2.56 1.72207,1.4471 3.85496,3.21229 5.26807,4.35987 0.61617,0.50041 1.19237,0.98655 1.2804,1.08032 0.088,0.0938 1.29566,1.10409 2.68362,2.24515 1.38796,1.14106 3.12524,2.57866 3.86061,3.19466 0.73536,0.616 2.11182,1.768 3.05877,2.56 0.94694,0.792 2.37866,1.99447 3.18159,2.67216 0.80292,0.67769 1.74982,1.46969 2.10421,1.76 4.44427,3.64069 5.81761,4.79966 6.41721,5.4155 0.68395,0.70249 0.71659,1.03465 0.94327,9.6 0.42594,16.09363 0.51339,15.19376 -1.32053,13.58688 z"
       id="path22" />
  </g>
</svg>
