<svg id="visual" viewBox="0 0 1536 200" xmlns="http://www.w3.org/2000/svg" xmlns:xlink="http://www.w3.org/1999/xlink" version="1.1"><path d="M0 85L219 62L439 89L658 82L878 64L1097 36L1317 85L1536 89L1536 201L1317 201L1097 201L878 201L658 201L439 201L219 201L0 201Z" fill="#4ade80"></path><path d="M0 86L219 99L439 88L658 95L878 87L1097 111L1317 71L1536 64L1536 201L1317 201L1097 201L878 201L658 201L439 201L219 201L0 201Z" fill="#4ab062"></path><path d="M0 106L219 123L439 112L658 92L878 117L1097 127L1317 135L1536 129L1536 201L1317 201L1097 201L878 201L658 201L439 201L219 201L0 201Z" fill="#418447"></path><path d="M0 158L219 160L439 156L658 138L878 124L1097 128L1317 152L1536 130L1536 201L1317 201L1097 201L878 201L658 201L439 201L219 201L0 201Z" fill="#335b30"></path><path d="M0 156L219 180L439 170L658 181L878 175L1097 156L1317 153L1536 156L1536 201L1317 201L1097 201L878 201L658 201L439 201L219 201L0 201Z" fill="#22361c"></path></svg>